2014048_C5_02_grf
version=1
nRows=15
nColumns=19
inDegrees=no
endheader
time	ground_force_1_vx	ground_force_1_vy	ground_force_1_vz	ground_force_1_px	ground_force_1_py	ground_force_1_pz	ground_force_1_mx	ground_force_1_my	ground_force_1_mz	ground_force_2_vx	ground_force_2_vy	ground_force_2_vz	ground_force_2_px	ground_force_2_py	ground_force_2_pz	ground_force_2_mx	ground_force_2_my	ground_force_2_mz
      0.72000000	    -21.43911831	    425.90337992	     25.41909739	     -0.17673567	     -0.00200000	      0.16092481	     -0.00000000	     -1.03835431	     -0.00000000	      0.00000000	      0.00000000	      0.00000000	      0.00000000	      0.00000000	      0.00000000	      0.00000000	      0.00000000	      0.00000000
      0.72100000	    -21.15411032	    423.42345417	     25.37177783	     -0.17602969	     -0.00200000	      0.16076614	      0.00000000	     -1.03623045	      0.00000000	      0.00000000	      0.00000000	      0.00000000	      0.00000000	      0.00000000	      0.00000000	      0.00000000	      0.00000000	      0.00000000
      0.72200000	    -20.87750286	    420.99046707	     25.32198280	     -0.17531649	     -0.00200000	      0.16060747	      0.00000000	     -1.03456477	     -0.00000000	      0.00000000	      0.00000000	      0.00000000	      0.00000000	      0.00000000	      0.00000000	      0.00000000	      0.00000000	      0.00000000
      0.72300000	    -20.61099373	    418.61693561	     25.26916191	     -0.17459448	     -0.00200000	      0.16044896	      0.00000000	     -1.03348885	      0.00000000	      0.00000000	      0.00000000	      0.00000000	      0.00000000	      0.00000000	      0.00000000	      0.00000000	      0.00000000	      0.00000000
      0.72400000	    -20.35224065	    416.29165411	     25.21399595	     -0.17386560	     -0.00200000	      0.16029065	      0.00000000	     -1.03289820	     -0.00000000	      0.00000000	      0.00000000	      0.00000000	      0.00000000	      0.00000000	      0.00000000	      0.00000000	      0.00000000	      0.00000000
      0.72500000	    -20.10278497	    414.02745247	     25.15600715	     -0.17312833	     -0.00200000	      0.16013269	      0.00000000	     -1.03292953	      0.00000000	      0.00000000	      0.00000000	      0.00000000	      0.00000000	      0.00000000	      0.00000000	      0.00000000	      0.00000000	      0.00000000
      0.72600000	    -19.86045949	    411.81278229	     25.09586327	     -0.17238457	     -0.00200000	      0.15997511	     -0.00000000	     -1.03347040	     -0.00000000	      0.00000000	      0.00000000	      0.00000000	      0.00000000	      0.00000000	      0.00000000	      0.00000000	      0.00000000	      0.00000000
      0.72700000	    -19.62666400	    409.66080129	     25.03318153	     -0.17163292	     -0.00200000	      0.15981810	      0.00000000	     -1.03465903	      0.00000000	      0.00000000	      0.00000000	      0.00000000	      0.00000000	      0.00000000	      0.00000000	      0.00000000	      0.00000000	      0.00000000
      0.72800000	    -19.39938217	    407.55960345	     24.96860549	     -0.17087516	     -0.00200000	      0.15966159	      0.00000000	     -1.03637497	     -0.00000000	      0.00000000	      0.00000000	      0.00000000	      0.00000000	      0.00000000	      0.00000000	      0.00000000	      0.00000000	      0.00000000
      0.72900000	    -19.17985734	    405.52270412	     24.90185574	     -0.17011002	     -0.00200000	      0.15950581	      0.00000000	     -1.03875847	      0.00000000	      0.00000000	      0.00000000	      0.00000000	      0.00000000	      0.00000000	      0.00000000	      0.00000000	      0.00000000	      0.00000000
      0.73000000	    -18.96622963	    403.53780985	     24.83352646	     -0.16933919	     -0.00200000	      0.15935066	      0.00000000	     -1.04168210	     -0.00000000	      0.00000000	      0.00000000	      0.00000000	      0.00000000	      0.00000000	      0.00000000	      0.00000000	      0.00000000	      0.00000000
      0.73100000	    -18.75959057	    401.61865950	     24.76345096	     -0.16856154	     -0.00200000	      0.15919636	      0.00000000	     -1.04528624	      0.00000000	      0.00000000	      0.00000000	      0.00000000	      0.00000000	      0.00000000	      0.00000000	      0.00000000	      0.00000000	      0.00000000
      0.73200000	    -18.55824143	    399.75264668	     24.69216846	     -0.16777865	     -0.00200000	      0.15904279	      0.00000000	     -1.04943760	      0.00000000	      0.00000000	      0.00000000	      0.00000000	      0.00000000	      0.00000000	      0.00000000	      0.00000000	      0.00000000	      0.00000000
      0.73300000	    -18.36313214	    397.95371890	     24.61962122	     -0.16698946	     -0.00200000	      0.15889020	     -0.00000000	     -1.05427567	     -0.00000000	      0.00000000	      0.00000000	      0.00000000	      0.00000000	      0.00000000	      0.00000000	      0.00000000	      0.00000000	      0.00000000
      0.73400000	    -18.17272976	    396.20891213	     24.54625815	     -0.16619547	     -0.00200000	      0.15873842	      0.00000000	     -1.05966598	     -0.00000000	      0.00000000	      0.00000000	      0.00000000	      0.00000000	      0.00000000	      0.00000000	      0.00000000	      0.00000000	      0.00000000
